<?xml version="1.0" encoding="iso-8859-1"?>
<!-- Generator: Adobe Illustrator 18.0.0, SVG Export Plug-In . SVG Version: 6.00 Build 0)  -->
<!DOCTYPE svg PUBLIC "-//W3C//DTD SVG 1.1//EN" "http://www.w3.org/Graphics/SVG/1.1/DTD/svg11.dtd">
<svg version="1.1" id="Capa_1" xmlns="http://www.w3.org/2000/svg" xmlns:xlink="http://www.w3.org/1999/xlink" x="0px" y="0px"
	 viewBox="0 0 462.278 462.278" style="enable-background:new 0 0 462.278 462.278;" xml:space="preserve">
<path d="M460.877,33.873l-4.578-15.696c-1.626-5.574-5.524-10.286-10.695-12.926c-5.172-2.64-11.275-3.035-16.744-1.082
	c-7.014,2.505-12.249,8.604-13.663,15.918l-22.462,116.255l-38.086-43.08l6.595-17.584c4.136-11.027,3.347-23.321-2.164-33.73
	c-5.233-9.887-15.021-16.249-26.183-17.019l-17.17-1.184c-9.806-0.679-19.721,1.955-27.904,7.411l-22.383,14.922l-37.018-12.34
	c-2.616-0.871-5.495-0.239-7.504,1.646c-2.01,1.886-2.823,4.721-2.119,7.385l16.564,62.711c3.085,11.678,7.486,23.027,13.081,33.73
	l13.646,26.105c-64.123,28.92-108.152,89.435-115.653,159.819l-3.323,31.187c-0.919,8.624-5.238,16.261-12.162,21.503
	c-6.937,5.252-15.729,7.614-24.747,6.646c-39.004-4.179-58.872-23.616-63.236-30.753c-7.621-12.464-4.663-33.98,8.329-60.585
	c12.473-25.539,12.484-34.239,8.666-39.446c-2.232-3.044-5.938-4.505-9.916-3.91c-8.006,1.202-17.575,10.996-24.193,19
	c-8.986,10.87-16.232,23.117-19.879,33.6c-7.177,20.634-7.903,40.841-2.101,58.436c7.011,21.257,23.075,38.48,47.748,51.191
	c52.739,27.168,102.604,30.831,144.428,30.831h26.036c6.144,10.001,17.163,16.499,29.474,16.499h109.481
	c2.446,0,4.739-1.193,6.143-3.197c1.404-2.004,1.742-4.566,0.906-6.866c-4.573-12.574-15.123-21.778-28.222-24.621
	c-33.329-7.231-48.969-13.778-54.658-17.573c13.178-16.199,20.905-34.121,22.626-52.134l16.673-14.142l40.054,95.845
	c5.761,13.782,19.135,22.688,34.072,22.688h26.901c4.143,0,7.5-3.358,7.5-7.5c0-18.292-12.967-33.574-30.934-36.592l-19.923-128.077
	c3.483-13.703,11.529-28.815,23.934-44.945c6.979-9.075,11.546-19.361,13.761-30.023c9.403-2.402,26.268-10.888,32.503-40.82
	c0.115-0.556,0.168-1.122,0.155-1.689c-1.18-55.483,6.034-102.23,9.189-119.752C462.684,44.619,462.39,39.065,460.877,33.873z
	 M394.225,233.076c-4.188,5.447-7.922,10.815-11.216,16.097l0.529-20.636c0.106-4.141-3.164-7.584-7.305-7.69
	c-4.105-0.088-7.584,3.165-7.689,7.305c0,0-1.481,59.41-1.414,59.842l20.999,134.993c0.504,3.241,3.056,5.778,6.299,6.264
	l4.782,0.717c8.309,1.247,14.883,6.877,17.545,14.364h-18.118c-8.87,0-16.812-5.288-20.232-13.472l-76.439-182.91
	c-1.597-3.822-5.992-5.626-9.812-4.028c-3.822,1.597-5.626,5.99-4.028,9.812l30.316,72.543l-11.088,9.405
	c-3.177-21.47-14.95-39.942-32.36-50.719c-35.132-21.748-88.271,12.126-90.517,13.579c-3.478,2.25-4.473,6.894-2.223,10.371
	c2.251,3.479,6.896,4.471,10.371,2.223c13.076-8.461,51.943-27.365,74.474-13.419c13.728,8.498,23.012,23.252,25.472,40.48
	c3.061,21.433-4.965,44.026-22.6,63.62c-1.584,1.76-2.243,4.166-1.779,6.488c1.563,7.817,10.099,13.878,28.54,20.269
	c13.162,4.561,28.994,8.354,39.957,10.733c3.869,0.839,7.375,2.583,10.283,5.025h-95.411c-9.433,0-17.531-6.73-19.257-16.004
	l-7.882-42.364c-0.757-4.072-4.67-6.756-8.745-6.001c-4.072,0.758-6.759,4.673-6.001,8.746l7.279,39.125h-20.905
	c-42.039,0-87.801-3.533-137.559-29.166c-21.054-10.846-34.637-25.163-40.372-42.554c-4.761-14.437-4.062-31.315,2.023-48.81
	c5.069-14.575,16.672-29.381,24.812-37.184c-1.372,3.835-3.582,9.154-7.136,16.43c-10.838,22.192-20.963,53.217-7.647,74.992
	c6.76,11.055,31.017,33.19,74.436,37.843c12.83,1.373,25.404-2.036,35.399-9.602c10.26-7.768,16.661-19.088,18.023-31.873
	l3.323-31.187c6.964-65.352,47.996-121.499,107.698-148.092l5.849,11.188c1.919,3.671,6.452,5.092,10.121,3.172
	c3.671-1.919,5.091-6.45,3.172-10.121l-26.456-50.61c-5.077-9.714-9.071-20.014-11.872-30.613l-13.02-49.291l27.33,9.11
	c2.194,0.731,4.605,0.409,6.532-0.875l25.435-16.957c5.44-3.627,12.02-5.375,18.553-4.927l17.17,1.184
	c5.949,0.41,11.167,3.802,13.957,9.072c3.504,6.618,4.005,14.435,1.376,21.445L344.24,78.3c-2.305,6.129-7.737,10.663-14.182,11.835
	l-34.854,6.337c-4.075,0.741-6.778,4.646-6.037,8.721c0.658,3.622,3.815,6.16,7.37,6.16c0.445,0,0.897-0.04,1.351-0.123
	l34.854-6.337c3.291-0.598,6.427-1.699,9.338-3.199l49.509,56.001C410.37,178.938,411.478,210.64,394.225,233.076z M446.964,47.276
	c-3.22,17.875-10.557,65.4-9.442,121.855c-3.504,15.954-10.524,23.133-16.102,26.366c-0.327-15.943-5.743-31.771-16.172-44.844
	l24.676-127.719c0.412-2.131,1.938-3.908,3.98-4.638c1.617-0.577,3.351-0.465,4.879,0.315c1.528,0.78,2.635,2.118,3.115,3.766
	l4.578,15.696C447.344,41.048,447.512,44.23,446.964,47.276z"/>
<g>
</g>
<g>
</g>
<g>
</g>
<g>
</g>
<g>
</g>
<g>
</g>
<g>
</g>
<g>
</g>
<g>
</g>
<g>
</g>
<g>
</g>
<g>
</g>
<g>
</g>
<g>
</g>
<g>
</g>
</svg>
